<?xml version="1.0" encoding="UTF-8" standalone="no"?>
<!-- Created with Inkscape (http://www.inkscape.org/) -->

<svg
   width="450"
   height="240"
   viewBox="0 0 119.06251 63.500002"
   version="1.1"
   id="svg5"
   inkscape:version="1.1 (c68e22c387, 2021-05-23)"
   sodipodi:docname="logo.svg"
   xmlns:inkscape="http://www.inkscape.org/namespaces/inkscape"
   xmlns:sodipodi="http://sodipodi.sourceforge.net/DTD/sodipodi-0.dtd"
   xmlns="http://www.w3.org/2000/svg"
   xmlns:svg="http://www.w3.org/2000/svg">
  <sodipodi:namedview
     id="namedview7"
     pagecolor="#ffffff"
     bordercolor="#666666"
     borderopacity="1.0"
     inkscape:pageshadow="2"
     inkscape:pageopacity="0.0"
     inkscape:pagecheckerboard="0"
     inkscape:document-units="px"
     showgrid="false"
     width="500px"
     height="200px"
     inkscape:zoom="1.4142136"
     inkscape:cx="119.14749"
     inkscape:cy="218.14244"
     inkscape:window-width="1920"
     inkscape:window-height="1001"
     inkscape:window-x="-22"
     inkscape:window-y="-22"
     inkscape:window-maximized="1"
     inkscape:current-layer="layer1" />
  <defs
     id="defs2" />
  <g
     inkscape:label="Camada 1"
     inkscape:groupmode="layer"
     id="layer1">
    <path
       style="fill:#f9f9f9;stroke:#f9f9f9;stroke-width:0.0895076"
       d="M 82.073669,61.277585 C 81.607551,61.130916 81.384541,60.980611 81.01569,60.564488 80.424077,59.897058 80.306388,59.529463 80.268397,58.23029 l -0.03258,-1.113993 h -0.704743 c -1.03206,0 -1.468,-0.189209 -2.035093,-0.883274 -0.793367,-0.971002 -0.721689,1.238431 -0.721689,-22.244887 0,-23.091976 -0.05069,-21.19373 0.590203,-22.084888 0.176141,-0.244922 0.506799,-0.565741 0.734776,-0.712934 l 0.414516,-0.267623 h 12.950771 12.950792 l 0.47741,0.298823 c 0.53804,0.336775 1.00586,1.001713 1.16652,1.658075 0.0543,0.221722 0.11875,0.814303 0.14325,1.316847 l 0.0445,0.91372 0.85838,0.04011 c 0.67735,0.03165 0.92858,0.08507 1.19141,0.2533 0.53736,0.343964 0.81474,0.686562 1.07811,1.331671 l 0.24742,0.605981 v 7.750196 7.750197 l -0.21319,0.20523 c -0.34672,0.333804 -0.68991,0.256789 -0.88204,-0.197938 -0.10082,-0.238633 -0.11837,-1.390702 -0.11837,-7.77427 0,-7.340825 -0.004,-7.500725 -0.16308,-7.817086 -0.34508,-0.683336 0.25568,-0.644733 -9.599157,-0.616796 l -8.886744,0.0252 -0.04039,4.059887 -0.04039,4.059891 -0.238598,0.527146 c -0.257173,0.568198 -0.623011,0.975941 -1.136817,1.267034 -0.294797,0.167017 -0.613762,0.186144 -3.580837,0.214741 l -3.257203,0.03139 0.02094,16.127377 0.02094,16.127376 0.202266,0.268286 c 0.42832,0.568122 -0.156966,0.539829 11.166197,0.539829 H 103.3191 l 0.19859,0.243052 c 0.10922,0.13368 0.19859,0.309819 0.19859,0.391426 0,0.278236 -0.17928,0.630759 -0.37681,0.740905 -0.22988,0.128193 -20.859555,0.141094 -21.265713,0.01328 z m -1.801213,-20.277064 0.0213,-14.630451 0.267209,-0.693152 c 0.249177,-0.646363 0.519516,-1.001944 4.004882,-5.267684 3.485353,-4.265742 3.775894,-4.59661 4.304011,-4.901573 l 0.56634,-0.327038 7.797064,-0.02716 7.797078,-0.02716 -0.034,-0.870337 c -0.0394,-1.009438 -0.19302,-1.425976 -0.63161,-1.712991 -0.27153,-0.1777 -0.74478,-0.184482 -12.864149,-0.184333 -11.817396,1.49e-4 -12.599359,0.01076 -12.863808,0.173288 -0.154854,0.09521 -0.364199,0.324544 -0.465213,0.509599 l -0.183652,0.336462 3e-4,20.606619 c 3.01e-4,20.387482 0.0017,20.610049 0.161079,20.929344 0.276427,0.554897 0.590447,0.716208 1.39502,0.716631 l 0.70689,3.71e-4 z m 7.62294,-15.866118 c 0.622677,-0.368928 0.647464,-0.494372 0.675377,-3.418351 0.01347,-1.416009 0.01347,-2.898112 0,-3.293561 l -0.02457,-0.718999 -3.114502,3.813426 -3.114514,3.813425 h 2.623755 c 2.448993,0 2.64577,-0.01305 2.954454,-0.19594 z m 18.328394,36.152113 c -0.7998,-0.316725 -1.22908,-0.949188 -1.34022,-1.974533 -0.0303,-0.279875 -0.1064,-0.560936 -0.16907,-0.624574 -0.14975,-0.152104 -1.38393,-0.783837 -1.655,-0.847135 -0.15666,-0.03657 -0.32326,0.04863 -0.64048,0.327556 -0.36372,0.319814 -0.50526,0.382954 -0.9332,0.416303 -0.27744,0.02163 -0.63545,-0.01358 -0.79555,-0.07828 -0.35739,-0.144353 -1.517851,-1.460039 -1.79107,-2.030636 -0.400599,-0.836592 -0.345465,-1.632004 0.177666,-2.563482 0.148695,-0.26481 0.270364,-0.521437 0.270364,-0.570291 0,-0.163044 -0.66428,-2.015882 -0.773511,-2.157539 -0.05912,-0.07678 -0.313124,-0.173744 -0.564221,-0.215452 -0.554614,-0.0921 -1.006677,-0.436837 -1.311263,-0.999919 -0.20982,-0.387894 -0.224907,-0.489679 -0.251916,-1.700131 -0.0341,-1.529604 0.03863,-1.900884 0.48954,-2.499632 0.322691,-0.428467 0.871761,-0.733123 1.321276,-0.733123 0.09632,0 0.239768,-0.08753 0.318889,-0.194528 0.122477,-0.165639 0.605556,-1.466279 0.744723,-2.005091 0.02616,-0.101254 -0.08721,-0.409759 -0.281041,-0.765076 -0.384699,-0.705081 -0.472954,-1.207665 -0.335348,-1.909718 0.08638,-0.440727 0.20045,-0.638416 0.822081,-1.424856 0.396964,-0.50222 0.854361,-0.990135 1.016421,-1.084257 0.63546,-0.369067 1.32409,-0.278655 1.87883,0.246678 0.44507,0.42147 0.52972,0.429115 1.15956,0.104726 1.22474,-0.630761 1.21153,-0.615923 1.35326,-1.518215 0.10682,-0.680041 0.49014,-1.275278 1.00661,-1.563173 0.47217,-0.263184 2.28458,-0.261215 2.75085,0.0029 0.56482,0.320061 1.00716,1.089763 1.0142,1.764767 0.005,0.549083 0.17816,0.739937 1.06069,1.173869 0.91269,0.448761 1.01698,0.448323 1.4583,-0.0063 0.41225,-0.424547 1.02697,-0.546867 1.63543,-0.325423 0.39166,0.142539 1.67998,1.598482 1.90735,2.155509 0.32758,0.802535 0.25832,1.632689 -0.20239,2.425786 -0.15383,0.264822 -0.27981,0.529351 -0.27995,0.587843 -1.5e-4,0.05849 0.15461,0.568976 0.34386,1.13441 0.37289,1.114115 0.36621,1.106533 1.14112,1.299046 0.38955,0.09679 0.54217,0.19926 0.86166,0.578622 0.48523,0.576134 0.56521,0.914984 0.56579,2.39724 3e-4,1.034576 -0.0197,1.193571 -0.21018,1.661382 -0.29925,0.734977 -0.88098,1.204937 -1.49152,1.204937 -0.34575,0 -0.54648,0.278222 -0.85737,1.18826 -0.39288,1.150068 -0.40748,1.291572 -0.16927,1.640771 0.44701,0.655306 0.58572,1.281842 0.45233,2.04309 -0.0783,0.447285 -0.1777,0.620409 -0.82783,1.442955 -0.92239,1.166991 -1.18388,1.343123 -1.9186,1.292314 -0.47203,-0.03264 -0.60623,-0.08808 -0.98381,-0.406348 -0.24047,-0.2027 -0.48917,-0.368248 -0.55265,-0.367887 -0.17907,0.0011 -1.61014,0.746525 -1.7414,0.907174 -0.0643,0.07872 -0.15161,0.403997 -0.19402,0.722847 -0.0978,0.735703 -0.37791,1.253972 -0.86835,1.606805 -0.36144,0.260029 -0.45075,0.27913 -1.39745,0.29884 -0.55623,0.0115 -1.10261,-0.01509 -1.21412,-0.05926 z m 2.01997,-1.494545 c 0.16239,-0.106353 0.32684,-0.590163 0.32684,-0.961519 0,-0.31985 0.25791,-0.912365 0.53963,-1.23969 0.12695,-0.147508 0.68459,-0.498047 1.23921,-0.77897 0.89489,-0.453294 1.0554,-0.504842 1.42607,-0.458016 0.42683,0.05391 0.71494,0.205767 1.09574,0.577511 0.39186,0.382515 0.59719,0.290325 1.29541,-0.581618 0.37595,-0.469454 0.63374,-0.874211 0.63374,-0.994999 0,-0.11199 -0.0859,-0.329573 -0.19088,-0.483518 -0.43311,-0.635108 -0.6159,-1.418338 -0.47128,-2.019192 0.045,-0.187094 0.23302,-0.785767 0.41772,-1.330388 0.47309,-1.394935 0.76524,-1.740232 1.66846,-1.971952 0.32794,-0.08413 0.59342,-0.212327 0.65575,-0.31665 0.0697,-0.116711 0.10471,-0.5179 0.10471,-1.200581 0,-0.956566 -0.0133,-1.0416 -0.19858,-1.268358 -0.13219,-0.161783 -0.28967,-0.243054 -0.47095,-0.243054 -0.34121,0 -1.09512,-0.463712 -1.28789,-0.792174 -0.15656,-0.266743 -0.64983,-1.646198 -0.85283,-2.384973 -0.17844,-0.649432 -0.0864,-1.228591 0.31016,-1.951364 0.2483,-0.452557 0.31173,-0.648724 0.27217,-0.841615 -0.0731,-0.356511 -1.18601,-1.65454 -1.41856,-1.65454 -0.10161,0 -0.38066,0.165151 -0.62013,0.367004 -0.36707,0.309424 -0.51723,0.373384 -0.95693,0.407651 -0.45769,0.03567 -0.60818,-0.0032 -1.22912,-0.31764 -1.50181,-0.760451 -1.8069,-1.099826 -1.96859,-2.189894 -0.13444,-0.906473 -0.18007,-0.940706 -1.25375,-0.940706 -0.88891,0 -0.91626,0.0065 -1.0797,0.260906 -0.0922,0.143501 -0.16768,0.402112 -0.16768,0.574689 0,0.42137 -0.3493,1.255652 -0.63331,1.512649 -0.12642,0.114399 -0.64549,0.416761 -1.15348,0.671913 -0.82781,0.415803 -0.97554,0.459945 -1.42455,0.425675 -0.41726,-0.03185 -0.57369,-0.09955 -0.93635,-0.405243 -0.23946,-0.201853 -0.52126,-0.367004 -0.62622,-0.367004 -0.13029,0 -0.39149,0.245595 -0.82337,0.77417 -0.702446,0.859729 -0.767742,1.091832 -0.44166,1.569997 0.41384,0.606837 0.58495,1.315854 0.46188,1.913764 -0.11473,0.557386 -0.711081,2.248119 -0.907805,2.573798 -0.219233,0.362879 -0.895382,0.792937 -1.246713,0.792937 -0.141002,0 -0.352304,0.09235 -0.469559,0.205232 -0.207058,0.199342 -0.213181,0.236268 -0.213181,1.287279 0,1.267655 0.06408,1.408008 0.695243,1.523855 0.861986,0.158205 1.260584,0.611555 1.709725,1.944648 0.58997,1.751062 0.5978,2.250598 0.0506,3.231623 -0.355414,0.637167 -0.332134,0.818462 0.19496,1.518802 0.73349,0.974575 1.02735,1.099377 1.51555,0.643635 0.7537,-0.703585 1.17312,-0.712399 2.48535,-0.05223 1.33269,0.670474 1.61656,1.017082 1.76626,2.156609 0.1074,0.817457 0.23007,0.908475 1.22451,0.908475 0.44298,0 0.87201,-0.04362 0.95339,-0.09694 z m -2.5049,-4.068757 c -3.47476,-1.110436 -5.53971,-5.29323 -4.72963,-9.580405 0.50988,-2.698489 2.33594,-4.981484 4.62451,-5.7817 0.9047,-0.31633 2.4659,-0.314517 3.37726,0.0039 2.24578,0.784687 3.98544,2.952758 4.58197,5.710354 0.1271,0.587514 0.17136,1.08637 0.17136,1.930921 0,1.413817 -0.1834,2.34768 -0.71954,3.663802 -0.32433,0.79618 -0.50169,1.085268 -1.15442,1.881648 -1.04032,1.269271 -1.95665,1.903835 -3.22383,2.232533 -0.79019,0.204967 -2.18633,0.175844 -2.92768,-0.06108 z m 2.87219,-1.445862 c 0.69266,-0.206754 1.56927,-0.760347 2.05972,-1.300742 l 0.42186,-0.464822 -0.29806,-0.465784 c -0.37039,-0.578837 -0.99421,-1.174917 -1.5771,-1.506982 -0.51581,-0.293841 -0.57774,-0.300553 -1.01096,-0.109545 -0.178,0.07848 -0.57847,0.142696 -0.88997,0.142696 -0.31148,0 -0.71197,-0.06422 -0.88997,-0.142696 -0.46451,-0.204815 -0.55877,-0.187194 -1.20177,0.224643 -0.57871,0.370662 -1.67194,1.56905 -1.66896,1.829498 7.6e-4,0.06995 0.14896,0.277124 0.32926,0.460379 1.34065,1.362737 3.03039,1.83947 4.72595,1.333355 z m -4.42757,-4.586673 c 0.33536,-0.269448 0.64781,-0.505442 0.69434,-0.524423 0.051,-0.02081 0.006,-0.248003 -0.11002,-0.57248 -0.2943,-0.813415 -0.28438,-2.016218 0.023,-2.782153 0.28835,-0.718656 0.78925,-1.332573 1.35265,-1.657823 0.6015,-0.347251 1.69969,-0.367223 2.27959,-0.04145 0.85083,0.477951 1.53156,1.615688 1.64775,2.753961 0.0563,0.55234 -0.11543,1.600383 -0.32723,1.995985 -0.11028,0.206017 -0.0908,0.232741 0.46401,0.636128 0.3185,0.231593 0.82679,0.724228 1.12953,1.094745 l 0.55042,0.673668 0.15284,-0.36774 c 0.99645,-2.397396 0.58068,-5.484735 -0.99541,-7.391592 -1.01168,-1.223997 -2.07988,-1.814963 -3.44518,-1.906002 -1.53671,-0.102463 -2.87845,0.518562 -3.9616,1.833633 -1.10088,1.336593 -1.58309,2.749831 -1.57665,4.620682 0.004,1.168599 0.13045,1.875025 0.49173,2.747582 l 0.19812,0.478541 0.41122,-0.550675 c 0.22618,-0.302872 0.6856,-0.771134 1.02094,-1.040583 z m 3.87034,-0.772057 c 0.26913,-0.177233 0.65218,-0.761894 0.75921,-1.158802 0.0558,-0.207272 0.0759,-0.540912 0.0467,-0.779141 -0.23329,-1.903903 -2.31961,-2.262211 -2.96997,-0.510062 -0.51542,1.388553 0.46454,2.891078 1.70994,2.621805 0.15576,-0.03369 0.36011,-0.11188 0.45413,-0.1738 z m -23.972423,5.030339 c -0.361228,-0.182321 -0.466119,-0.848397 -0.187323,-1.189618 0.155223,-0.189987 0.269685,-0.198045 2.813723,-0.198045 3.004689,0 3.011539,0.0015 3.011539,0.683419 0,0.255487 -0.05425,0.435288 -0.170181,0.563762 -0.158948,0.176161 -0.339527,0.189994 -2.7306,0.209162 -1.408222,0.01125 -2.639945,-0.01961 -2.737158,-0.06868 z m -0.187323,-5.150483 c -0.204453,-0.250224 -0.207667,-0.700912 -0.0069,-1.004002 l 0.154633,-0.233769 4.841356,-0.0299 c 3.193104,-0.01971 4.940106,0.0052 5.131428,0.07335 0.183676,0.06538 0.324618,0.196107 0.384296,0.356393 0.130926,0.351716 0.11923,0.475273 -0.07342,0.775071 l -0.167675,0.260908 h -5.050785 c -4.942915,0 -5.054252,-0.0043 -5.21261,-0.198044 z m 0.01405,-4.982222 c -0.249861,-0.32552 -0.232376,-0.791324 0.03951,-1.053096 0.214115,-0.206134 0.246175,-0.207242 5.215617,-0.180473 5.500097,0.02965 5.190331,-0.0079 5.296293,0.640583 0.04148,0.254182 0.0118,0.362294 -0.156323,0.568051 l -0.207628,0.254116 h -5.00579 -5.005778 z m 0.03951,-4.924951 c -0.280939,-0.270464 -0.293903,-0.761451 -0.02821,-1.066972 l 0.187263,-0.215305 h 4.994435 4.994448 l 0.207638,0.254119 c 0.168097,0.205753 0.197849,0.313867 0.156323,0.56805 -0.105971,0.648419 0.203794,0.610953 -5.296303,0.640582 -4.969441,0.02679 -5.001491,0.02565 -5.215617,-0.180474 z M 94.224469,26.280292 c -0.762547,-0.343161 -0.941141,-0.845099 -0.94351,-2.651626 -0.0019,-1.457247 0.05081,-1.7562 0.387677,-2.197119 0.436898,-0.571905 0.276879,-0.557178 6.05494,-0.557178 5.232754,0 5.322434,0.0033 5.667194,0.207552 0.2336,0.138395 0.41735,0.347516 0.55144,0.627587 0.18954,0.395822 0.20113,0.503894 0.20113,1.875081 0,1.623839 -0.0639,1.940059 -0.47808,2.366625 -0.44642,0.45974 -0.64253,0.482001 -3.95878,0.449375 l -3.101898,-0.03052 -0.154588,-0.233768 c -0.196687,-0.297406 -0.196687,-0.621362 0,-0.918768 l 0.154588,-0.233768 3.142358,-0.04951 3.14235,-0.04953 V 23.64695 22.40918 h -5.178015 -5.178043 v 1.23777 1.237772 l 0.917642,0.04952 c 0.841833,0.04543 0.930398,0.06883 1.072018,0.28328 0.196422,0.297464 0.196374,0.62142 -1.67e-4,0.918767 -0.14388,0.217709 -0.217536,0.235457 -1.072008,0.258351 -0.631583,0.01691 -1.013735,-0.01871 -1.226287,-0.114362 z"
       id="path4712" />
    <text
       xml:space="preserve"
       style="font-style:normal;font-weight:normal;font-size:59.3571px;line-height:1.25;font-family:sans-serif;fill:#f9f9f9;fill-opacity:1;stroke:none;stroke-width:1.87888"
       x="-1.0917329"
       y="44.101025"
       id="text673"
       transform="scale(0.7336158,1.3631113)"><tspan
         sodipodi:role="line"
         id="tspan671"
         style="font-style:normal;font-variant:normal;font-weight:normal;font-stretch:normal;font-size:59.3571px;font-family:'Palatino Linotype';-inkscape-font-specification:'Palatino Linotype';fill:#f9f9f9;stroke:none;stroke-width:1.87888"
         x="-1.0917329"
         y="44.101025">ERP</tspan></text>
  </g>
</svg>
